<svg xmlns="http://www.w3.org/2000/svg" viewBox="0 0 534.87 534.87">
    <g>
        <path d="m267.41,104.82c-89.6,0-162.53,72.93-162.53,162.59s72.93,162.6,162.53,162.6,162.6-72.93,162.6-162.6-72.93-162.59-162.6-162.59Zm-15.62,63.53c0-8.62,7-15.62,15.62-15.62s15.69,7,15.69,15.62v85.77c0,8.62-7.07,15.62-15.69,15.62-7.71,0-14.13-5.7-15.36-13.1-.13-.84-.26-1.69-.26-2.53v-85.77Zm121.62,100.62c-.13,5.51-.58,9.34-1.36,14.39-.39,2.53-.91,5.19-1.62,8.1-.71,3.05-1.36,5.64-2.72,9.53-1.04,2.85-3.18,8.62-6.22,14.46-2.53,4.93-5.64,9.85-9.14,14.59-3.5,4.67-7.39,9.01-11.54,13.03-4.21,4.02-8.75,7.71-13.55,11.02-14,9.6-30.28,15.75-47.13,17.7-4.41.52-8.75.78-13.1.78-11.6,0-22.95-1.88-33.71-5.58-4.93-1.69-9.72-3.76-14.39-6.16-4.67-2.46-9.14-5.19-13.36-8.23-4.28-3.11-8.36-6.55-12.19-10.24-3.76-3.7-7.33-7.65-10.5-11.86-9.47-12.51-15.95-26.65-19.25-42.01-.58-2.4-1.04-4.8-1.36-7.39-.45-3.05-.71-6.35-.84-10.37-.06-5.58.06-16.73,2.66-28.2,2.2-9.85,6.03-19.58,11.41-28.91,5.58-9.66,12.25-18.02,19.9-24.9,8.23-7.46,17.57-13.16,22.43-15.88,5.25-2.92,6.81-3.31,8.43-3.5,4.99-.78,9.59.58,13.29,3.89,1.62,1.56,2.98,3.37,3.82,5.19.97,2.27,1.3,4.67,1.36,5.9.06,3.57-.26,4.47-1.04,6.42l-.19.58c-.45,1.04-1.43,2.92-2.98,4.54-1.36,1.49-3.11,2.59-5.96,4.21l-1.49.78c-2.79,1.56-6.29,3.5-9.53,5.77-3.57,2.53-7,5.64-10.57,9.47-3.76,4.02-6.55,7.78-9.21,12.19-3.31,5.58-6.03,11.93-7.78,17.89-2.79,9.59-3.57,20.1-2.2,30.28.45,3.37,1.1,6.74,2.01,9.98,1.82,6.55,4.54,12.77,8.1,18.61,3.57,5.9,7.97,11.28,13.03,15.95,5.06,4.73,10.76,8.69,16.99,11.86,12.19,6.22,26,8.88,39.81,7.71,7-.58,13.68-2.07,19.9-4.54,7.39-2.85,13.61-6.81,16.66-8.88,4.21-2.92,6.87-5.32,9.53-8.04,2.72-2.79,5.06-5.45,7.07-8.17,13.81-19.19,18.02-39.29,12.84-61.07-.78-3.31-1.75-6.61-2.98-9.98-1.3-3.57-2.79-6.94-5.71-11.67-2.79-4.41-7.26-10.76-13.1-16.01-5.64-5.19-12.58-9.21-15.88-11.09l-2.92-1.75c-1.43-.78-2.01-1.1-2.53-1.49-.97-.65-1.75-1.36-2.59-2.4-1.94-2.14-4.02-6.42-3.95-10.18-.06-3.24.71-5.96,2.46-8.75.78-1.3,1.82-2.46,3.05-3.57,2.59-2.4,6.55-3.76,10.7-3.82,2.2,0,4.41.39,8.69,2.53,3.57,1.75,9.47,5.19,15.3,9.47,9.98,7.13,19.77,17.63,26.84,28.78,6.87,10.83,10.05,19.77,12.45,27.88,1.43,4.93,2.46,9.85,3.11,14.65.71,5.71.84,11.02.84,13.68,0,1.04-.06,1.88-.06,2.85Z" />
        <path d="m289.03,82.63L267.43,0l-21.6,82.63c7.09-.82,14.29-1.26,21.6-1.26s14.51.44,21.6,1.26Z" />
        <path d="m245.84,452.24l21.6,82.63,21.6-82.63c-7.09.82-14.29,1.26-21.6,1.26s-14.51-.44-21.6-1.26Z" />
        <path d="m216.65,88.41l-51.56-68.05,11.67,84.65c12.48-7,25.85-12.61,39.89-16.6Z" />
        <path d="m318.22,446.46l51.56,68.05-11.67-84.65c-12.48,7-25.85,12.61-39.89,16.6Z" />
        <path d="m152.1,121.53l-73.77-43.2,43.2,73.77c8.98-11.33,19.24-21.6,30.57-30.58Z" />
        <path d="m382.77,413.34l73.77,43.2-43.2-73.77c-8.98,11.33-19.24,21.6-30.57,30.57Z" />
        <path d="m105,176.76l-84.65-11.67,68.05,51.56c3.99-14.04,9.6-27.4,16.59-39.89Z" />
        <path d="m429.86,358.11l84.65,11.67-68.05-51.56c-3.99,14.04-9.6,27.4-16.6,39.89Z" />
        <path d="m81.37,267.43c0-7.31.44-14.51,1.26-21.6L0,267.43l82.63,21.6c-.82-7.09-1.26-14.29-1.26-21.6Z" />
        <path d="m534.87,267.43l-82.63-21.6c.82,7.09,1.26,14.29,1.26,21.6s-.44,14.51-1.26,21.6l82.63-21.6Z" />
        <path d="m88.41,318.22l-68.05,51.56,84.65-11.67c-7-12.48-12.61-25.85-16.59-39.89Z" />
        <path d="m446.46,216.65l68.05-51.56-84.65,11.67c7,12.48,12.61,25.85,16.6,39.89Z" />
        <path d="m121.53,382.77l-43.2,73.77,73.77-43.2c-11.33-8.98-21.6-19.24-30.57-30.57Z" />
        <path d="m413.34,152.1l43.2-73.77-73.77,43.2c11.33,8.98,21.6,19.24,30.57,30.58Z" />
        <path d="m165.09,514.51l51.56-68.05c-14.04-3.99-27.4-9.6-39.89-16.6l-11.67,84.65Z" />
        <path d="m369.78,20.36l-51.56,68.05c14.04,3.99,27.4,9.6,39.89,16.6l11.67-84.65Z" />
    </g>
    <style>
        svg:root{
            --if-dark: #fff;
            --if-light: #000;
        }

        @media (prefers-color-scheme: dark) {
            path {
                fill: var(--if-dark);
            }
        }

        html[scheme=dark] {
            path {
                fill: var(--if-dark);
            }
        }

        @media (prefers-color-scheme: light) {
            path {
                fill: var(--if-light);
            }
        }

        html[scheme=light] {
            path {
                fill: var(--if-light);
            }
        }
    </style>
</svg>