<svg width="35" height="35" viewBox="0 0 35 35" fill="none" xmlns="http://www.w3.org/2000/svg">
<path d="M13.2723 34.5477V22.9102H9.66438V17.5625H13.2723V15.2583C13.2723 9.30104 15.9673 6.54042 21.8152 6.54042C22.4 6.54042 23.2079 6.60167 23.956 6.69063C24.5164 6.74829 25.0723 6.84329 25.62 6.975V11.824C25.3033 11.7944 24.9857 11.7769 24.6677 11.7715C24.3115 11.7622 23.9551 11.7578 23.5987 11.7583C22.5677 11.7583 21.7627 11.8983 21.156 12.209C20.7482 12.4136 20.4053 12.7277 20.1658 13.116C19.7896 13.7285 19.6204 14.5671 19.6204 15.671V17.5625H25.3356L24.7727 20.6294L24.3542 22.9102H19.6204V34.9342C28.2858 33.8871 35 26.5094 35 17.5625C35 7.89813 27.1644 0.0625 17.5 0.0625C7.83563 0.0625 0 7.89813 0 17.5625C0 25.77 5.64958 32.6562 13.2723 34.5477Z" fill="#E5E5E5"/>
</svg>
