<svg width="36" height="36" viewBox="0 0 36 36" fill="none" xmlns="http://www.w3.org/2000/svg">
<path fill-rule="evenodd" clip-rule="evenodd" d="M19.7067 9.41636L18 0.5L16.2933 9.41636C16.2929 9.41644 16.2924 9.41653 16.292 9.41662L11.303 1.83211L13.1386 10.7237C13.1384 10.7238 13.1381 10.7239 13.1379 10.7241L5.62563 5.62563L10.7241 13.1379C10.7239 13.1381 10.7238 13.1384 10.7237 13.1386L1.83211 11.303L9.41662 16.292C9.41653 16.2924 9.41644 16.2929 9.41636 16.2933L0.5 18L9.41636 19.7067C9.41644 19.7071 9.41653 19.7076 9.41662 19.708L1.83211 24.697L10.7237 22.8614C10.7238 22.8616 10.7239 22.8619 10.7241 22.8621L5.62563 30.3744L13.1379 25.2759C13.1381 25.2761 13.1384 25.2762 13.1386 25.2763L11.303 34.1679L16.292 26.5834C16.2924 26.5835 16.2929 26.5836 16.2933 26.5836L18 35.5L19.7067 26.5836C19.7071 26.5836 19.7076 26.5835 19.708 26.5834L24.697 34.1679L22.8614 25.2763C22.8616 25.2762 22.8619 25.2761 22.8621 25.2759L30.3744 30.3744L25.2759 22.8621C25.2761 22.8619 25.2762 22.8616 25.2763 22.8614L34.1679 24.697L26.5834 19.708C26.5835 19.7076 26.5836 19.7071 26.5836 19.7067L35.5 18L26.5836 16.2933C26.5836 16.2929 26.5835 16.2924 26.5834 16.292L34.1679 11.303L25.2763 13.1386C25.2762 13.1384 25.2761 13.1381 25.2759 13.1379L30.3744 5.62563L22.8621 10.7241C22.8619 10.7239 22.8616 10.7238 22.8614 10.7237L24.697 1.83211L19.708 9.41662C19.7076 9.41653 19.7071 9.41644 19.7067 9.41636ZM19.7067 9.41636C19.1547 9.30722 18.584 9.25 18 9.25C17.416 9.25 16.8453 9.30722 16.2933 9.41636L16.293 9.41813L16.292 9.41662C15.1442 9.64373 14.0772 10.0953 13.1386 10.7237L13.1388 10.7246L13.1379 10.7241C12.1841 11.3628 11.3628 12.1841 10.7241 13.1379L10.7246 13.1388L10.7237 13.1386C10.0953 14.0772 9.64373 15.1442 9.41662 16.292L9.41813 16.293L9.41636 16.2933C9.30722 16.8453 9.25 17.416 9.25 18C9.25 18.584 9.30722 19.1547 9.41636 19.7067L9.41813 19.707L9.41662 19.708C9.64373 20.8558 10.0953 21.9228 10.7237 22.8614L10.7246 22.8612L10.7241 22.8621C11.3628 23.8159 12.1841 24.6372 13.1379 25.2759L13.1388 25.2754L13.1386 25.2763C14.0772 25.9047 15.1442 26.3563 16.292 26.5834L16.293 26.5819L16.2933 26.5836C16.8453 26.6928 17.416 26.75 18 26.75C18.584 26.75 19.1547 26.6928 19.7067 26.5836L19.707 26.5819L19.708 26.5834C20.8558 26.3563 21.9228 25.9047 22.8614 25.2763L22.8612 25.2754L22.8621 25.2759C23.8159 24.6372 24.6372 23.8159 25.2759 22.8621L25.2754 22.8612L25.2763 22.8614C25.9047 21.9228 26.3563 20.8558 26.5834 19.708L26.5819 19.707L26.5836 19.7067C26.6928 19.1547 26.75 18.584 26.75 18C26.75 17.416 26.6928 16.8453 26.5836 16.2933L26.5819 16.293L26.5834 16.292C26.3563 15.1442 25.9047 14.0772 25.2763 13.1386L25.2754 13.1388L25.2759 13.1379C24.6372 12.1841 23.8159 11.3628 22.8621 10.7241L22.8612 10.7246L22.8614 10.7237C21.9228 10.0953 20.8558 9.64373 19.708 9.41662L19.707 9.41813L19.7067 9.41636ZM18 25.25C22.0041 25.25 25.25 22.0041 25.25 18C25.25 13.9959 22.0041 10.75 18 10.75C13.9959 10.75 10.75 13.9959 10.75 18C10.75 22.0041 13.9959 25.25 18 25.25ZM18.1758 22.1992C17.5705 22.1992 17.0018 22.0844 16.4695 21.8547C15.9372 21.625 15.4742 21.3133 15.0804 20.9195C14.6867 20.5258 14.375 20.0628 14.1453 19.5305C13.9156 18.9982 13.8008 18.4294 13.8008 17.8242C13.8008 17.2117 13.9156 16.6411 14.1453 16.1125C14.375 15.5839 14.6867 15.1227 15.0804 14.7289L15.6929 15.3414C15.3721 15.6622 15.1224 16.0341 14.9437 16.457C14.7651 16.88 14.6758 17.3357 14.6758 17.8242C14.6758 18.8013 15.0148 19.6289 15.6929 20.307C16.3711 20.9852 17.1987 21.3242 18.1758 21.3242C19.1528 21.3242 19.9804 20.9852 20.6586 20.307C21.3367 19.6289 21.6758 18.8013 21.6758 17.8242C21.6758 17.3357 21.5864 16.88 21.4078 16.457C21.2291 16.0341 20.9794 15.6622 20.6586 15.3414L21.2711 14.7289C21.6648 15.1227 21.9765 15.5839 22.2062 16.1125C22.4359 16.6411 22.5508 17.2117 22.5508 17.8242C22.5508 18.4294 22.4359 18.9982 22.2062 19.5305C21.9765 20.0628 21.6648 20.5258 21.2711 20.9195C20.8773 21.3133 20.4143 21.625 19.882 21.8547C19.3497 22.0844 18.781 22.1992 18.1758 22.1992ZM17.7383 18.2617V13.4492H18.6133V18.2617H17.7383Z" fill="#F2F2F2"/>
</svg>
