<svg width="80" height="35" viewBox="0 0 80 35" fill="none" xmlns="http://www.w3.org/2000/svg">
<g clip-path="url(#clip0_8693_538)">
<path fill-rule="evenodd" clip-rule="evenodd" d="M19.2067 8.91636L17.5 0L15.7933 8.91636C15.7929 8.91644 15.7924 8.91653 15.792 8.91662L10.803 1.33211L12.6386 10.2237C12.6384 10.2238 12.6381 10.2239 12.6379 10.2241L5.12563 5.12563L10.2241 12.6379C10.2239 12.6381 10.2238 12.6384 10.2237 12.6386L1.33211 10.803L8.91662 15.792C8.91653 15.7924 8.91644 15.7929 8.91636 15.7933L0 17.5L8.91636 19.2067C8.91644 19.2071 8.91653 19.2076 8.91662 19.208L1.33211 24.197L10.2237 22.3614C10.2238 22.3616 10.2239 22.3619 10.2241 22.3621L5.12563 29.8744L12.6379 24.7759C12.6381 24.7761 12.6384 24.7762 12.6386 24.7763L10.803 33.6679L15.792 26.0834C15.7924 26.0835 15.7929 26.0836 15.7933 26.0836L17.5 35L19.2067 26.0836C19.2071 26.0836 19.2076 26.0835 19.208 26.0834L24.197 33.6679L22.3614 24.7763C22.3616 24.7762 22.3619 24.7761 22.3621 24.7759L29.8744 29.8744L24.7759 22.3621C24.7761 22.3619 24.7762 22.3616 24.7763 22.3614L33.6679 24.197L26.0834 19.208C26.0835 19.2076 26.0836 19.2071 26.0836 19.2067L35 17.5L26.0836 15.7933C26.0836 15.7929 26.0835 15.7924 26.0834 15.792L33.6679 10.803L24.7763 12.6386C24.7762 12.6384 24.7761 12.6381 24.7759 12.6379L29.8744 5.12563L22.3621 10.2241C22.3619 10.2239 22.3616 10.2238 22.3614 10.2237L24.197 1.33211L19.208 8.91662C19.2076 8.91653 19.2071 8.91644 19.2067 8.91636ZM19.2067 8.91636C18.6547 8.80722 18.084 8.75 17.5 8.75C16.916 8.75 16.3453 8.80722 15.7933 8.91636L15.793 8.91813L15.792 8.91662C14.6442 9.14373 13.5772 9.59529 12.6386 10.2237L12.6388 10.2246L12.6379 10.2241C11.6841 10.8628 10.8628 11.6841 10.2241 12.6379L10.2246 12.6388L10.2237 12.6386C9.59529 13.5772 9.14373 14.6442 8.91662 15.792L8.91813 15.793L8.91636 15.7933C8.80722 16.3453 8.75 16.916 8.75 17.5C8.75 18.084 8.80722 18.6547 8.91636 19.2067L8.91813 19.207L8.91662 19.208C9.14373 20.3558 9.59529 21.4228 10.2237 22.3614L10.2246 22.3612L10.2241 22.3621C10.8628 23.3159 11.6841 24.1372 12.6379 24.7759L12.6388 24.7754L12.6386 24.7763C13.5772 25.4047 14.6442 25.8563 15.792 26.0834L15.793 26.0819L15.7933 26.0836C16.3453 26.1928 16.916 26.25 17.5 26.25C18.084 26.25 18.6547 26.1928 19.2067 26.0836L19.207 26.0819L19.208 26.0834C20.3558 25.8563 21.4228 25.4047 22.3614 24.7763L22.3612 24.7754L22.3621 24.7759C23.3159 24.1372 24.1372 23.3159 24.7759 22.3621L24.7754 22.3612L24.7763 22.3614C25.4047 21.4228 25.8563 20.3558 26.0834 19.208L26.0819 19.207L26.0836 19.2067C26.1928 18.6547 26.25 18.084 26.25 17.5C26.25 16.916 26.1928 16.3453 26.0836 15.7933L26.0819 15.793L26.0834 15.792C25.8563 14.6442 25.4047 13.5772 24.7763 12.6386L24.7754 12.6388L24.7759 12.6379C24.1372 11.6841 23.3159 10.8628 22.3621 10.2241L22.3612 10.2246L22.3614 10.2237C21.4228 9.59529 20.3558 9.14373 19.208 8.91662L19.207 8.91813L19.2067 8.91636ZM17.5 24.75C21.5041 24.75 24.75 21.5041 24.75 17.5C24.75 13.4959 21.5041 10.25 17.5 10.25C13.4959 10.25 10.25 13.4959 10.25 17.5C10.25 21.5041 13.4959 24.75 17.5 24.75ZM17.6758 21.6992C17.0705 21.6992 16.5018 21.5844 15.9695 21.3547C15.4372 21.125 14.9742 20.8133 14.5804 20.4195C14.1867 20.0258 13.875 19.5628 13.6453 19.0305C13.4156 18.4982 13.3008 17.9294 13.3008 17.3242C13.3008 16.7117 13.4156 16.1411 13.6453 15.6125C13.875 15.0839 14.1867 14.6227 14.5804 14.2289L15.1929 14.8414C14.8721 15.1622 14.6224 15.5341 14.4437 15.957C14.2651 16.38 14.1758 16.8357 14.1758 17.3242C14.1758 18.3013 14.5148 19.1289 15.1929 19.807C15.8711 20.4852 16.6987 20.8242 17.6758 20.8242C18.6528 20.8242 19.4804 20.4852 20.1586 19.807C20.8367 19.1289 21.1758 18.3013 21.1758 17.3242C21.1758 16.8357 21.0864 16.38 20.9078 15.957C20.7291 15.5341 20.4794 15.1622 20.1586 14.8414L20.7711 14.2289C21.1648 14.6227 21.4765 15.0839 21.7062 15.6125C21.9359 16.1411 22.0508 16.7117 22.0508 17.3242C22.0508 17.9294 21.9359 18.4982 21.7062 19.0305C21.4765 19.5628 21.1648 20.0258 20.7711 20.4195C20.3773 20.8133 19.9143 21.125 19.382 21.3547C18.8497 21.5844 18.281 21.6992 17.6758 21.6992ZM17.2383 17.7617V12.9492H18.1133V17.7617H17.2383Z" fill="#F2F2F2"/>
<path d="M43.33 17.656C42.4027 17.656 41.5837 17.4567 40.873 17.058C40.1623 16.6507 39.6033 16.096 39.196 15.394C38.7973 14.6833 38.598 13.873 38.598 12.963C38.598 12.0357 38.7973 11.221 39.196 10.519C39.6033 9.80833 40.1623 9.25367 40.873 8.855C41.5837 8.44767 42.4027 8.244 43.33 8.244C43.8153 8.244 44.2877 8.32633 44.747 8.491C45.2063 8.647 45.6267 8.86367 46.008 9.141C46.3893 9.41833 46.697 9.73467 46.931 10.09L46.06 10.688C45.8867 10.4107 45.6527 10.1637 45.358 9.947C45.0633 9.72167 44.7383 9.54833 44.383 9.427C44.0363 9.30567 43.6853 9.245 43.33 9.245C42.628 9.245 42.004 9.40533 41.458 9.726C40.912 10.038 40.483 10.4713 40.171 11.026C39.859 11.5807 39.703 12.2263 39.703 12.963C39.703 13.6737 39.8547 14.3107 40.158 14.874C40.47 15.4287 40.899 15.8663 41.445 16.187C41.9997 16.5077 42.628 16.668 43.33 16.668C43.9193 16.668 44.4393 16.5467 44.89 16.304C45.3493 16.0527 45.709 15.7103 45.969 15.277C46.229 14.835 46.359 14.328 46.359 13.756L47.412 13.678C47.412 14.4753 47.2387 15.173 46.892 15.771C46.5453 16.3603 46.0643 16.824 45.449 17.162C44.8337 17.4913 44.1273 17.656 43.33 17.656ZM44.123 13.808V12.859H47.412V13.717L46.892 13.808H44.123ZM48.4801 17.5V8.4H49.5851V17.5H48.4801ZM51.0214 17.5V16.486L56.7544 9.414H51.0604V8.4H58.1324V9.414L52.3994 16.486H58.0934V17.5H51.0214ZM59.5576 17.5V8.4H60.7016L63.8476 13.054L66.9936 8.4H68.1246V17.5H67.0326V10.168L63.8476 14.913L60.6626 10.194V17.5H59.5576ZM74.0357 17.656C73.1604 17.656 72.3847 17.4567 71.7087 17.058C71.0327 16.6593 70.504 16.1047 70.1227 15.394C69.7414 14.6833 69.5507 13.8687 69.5507 12.95C69.5507 12.0227 69.737 11.208 70.1097 10.506C70.491 9.79533 71.0154 9.24067 71.6827 8.842C72.35 8.44333 73.1214 8.244 73.9967 8.244C74.872 8.244 75.6434 8.44767 76.3107 8.855C76.9867 9.25367 77.511 9.80833 77.8837 10.519C78.2564 11.221 78.4427 12.0313 78.4427 12.95C78.4427 13.8687 78.2564 14.6833 77.8837 15.394C77.511 16.1047 76.991 16.6593 76.3237 17.058C75.665 17.4567 74.9024 17.656 74.0357 17.656ZM74.0357 16.655C74.6857 16.655 75.2577 16.499 75.7517 16.187C76.2457 15.8663 76.6314 15.4287 76.9087 14.874C77.1947 14.3193 77.3377 13.678 77.3377 12.95C77.3377 12.2307 77.1947 11.5937 76.9087 11.039C76.6227 10.4757 76.2284 10.038 75.7257 9.726C75.2317 9.40533 74.6554 9.245 73.9967 9.245C73.3467 9.245 72.7704 9.40533 72.2677 9.726C71.765 10.038 71.3707 10.4757 71.0847 11.039C70.7987 11.5937 70.6557 12.2307 70.6557 12.95C70.6557 13.678 70.7987 14.3193 71.0847 14.874C71.3707 15.4287 71.7694 15.8663 72.2807 16.187C72.792 16.499 73.377 16.655 74.0357 16.655Z" fill="#F2F2F2"/>
<path d="M38.465 26.5V23H39.57C39.81 23 40.015 23.0367 40.185 23.11C40.355 23.1833 40.4867 23.2917 40.58 23.435C40.6733 23.575 40.72 23.7467 40.72 23.95C40.72 24.12 40.6817 24.27 40.605 24.4C40.5283 24.5267 40.42 24.63 40.28 24.71C40.4533 24.7933 40.5867 24.905 40.68 25.045C40.7767 25.185 40.825 25.3517 40.825 25.545C40.825 25.7483 40.78 25.9217 40.69 26.065C40.6 26.205 40.4717 26.3133 40.305 26.39C40.1417 26.4633 39.945 26.5 39.715 26.5H38.465ZM38.885 26.12H39.695C39.915 26.12 40.0867 26.0683 40.21 25.965C40.3367 25.8583 40.4 25.7133 40.4 25.53C40.4 25.3333 40.3283 25.18 40.185 25.07C40.0417 24.9567 39.8417 24.9 39.585 24.9H38.885V26.12ZM38.885 24.535H39.675C39.8683 24.535 40.02 24.4833 40.13 24.38C40.24 24.2767 40.295 24.1333 40.295 23.95C40.295 23.76 40.23 23.615 40.1 23.515C39.9733 23.4117 39.7933 23.36 39.56 23.36H38.885V24.535ZM41.4816 27.56C41.4183 27.56 41.345 27.5467 41.2616 27.52C41.1783 27.4967 41.09 27.465 40.9966 27.425L41.1466 27.09C41.2233 27.1233 41.29 27.1483 41.3466 27.165C41.4066 27.1817 41.4533 27.19 41.4866 27.19C41.5766 27.19 41.65 27.165 41.7066 27.115C41.7666 27.0683 41.8166 27 41.8566 26.91L42.1416 26.23L43.0666 24H43.4966L42.2966 26.85C42.2333 26.9967 42.1666 27.1233 42.0966 27.23C42.03 27.3367 41.9483 27.4183 41.8516 27.475C41.755 27.5317 41.6316 27.56 41.4816 27.56ZM42.0316 26.5L40.9516 24H41.3766L42.3066 26.225L42.4266 26.5H42.0316Z" fill="#808080"/>
<path d="M49.7485 26.5V20.9H50.4205V26.5H49.7485ZM45.9005 26.5V20.9H46.5805V26.5H45.9005ZM46.5005 23.924V23.308H49.8925V23.924H46.5005ZM53.6683 24.172L53.0843 23.892L54.9083 20.9H55.6843L53.6683 24.172ZM53.0043 26.5V23.812H53.6763V26.5H53.0043ZM53.0123 24.172L50.9963 20.9H51.7803L53.5963 23.892L53.0123 24.172ZM57.3845 26.5V21.516H55.6005V20.9H59.8405V21.516H58.0565V26.5H57.3845ZM60.4305 26.5V20.9H63.7425V21.516H61.1105V23.324H63.5105V23.932H61.1105V25.884H63.7585V26.5H60.4305ZM67.2849 26.596C66.7516 26.596 66.2796 26.4733 65.8689 26.228C65.4582 25.9773 65.1356 25.636 64.9009 25.204C64.6662 24.7667 64.5489 24.2653 64.5489 23.7C64.5489 23.1347 64.6636 22.636 64.8929 22.204C65.1276 21.7667 65.4476 21.4253 65.8529 21.18C66.2636 20.9293 66.7329 20.804 67.2609 20.804C67.5969 20.804 67.9196 20.8653 68.2289 20.988C68.5382 21.1053 68.8156 21.2733 69.0609 21.492C69.3062 21.7053 69.4956 21.9533 69.6289 22.236L69.0449 22.532C68.9382 22.308 68.7916 22.1133 68.6049 21.948C68.4182 21.7827 68.2102 21.6547 67.9809 21.564C67.7516 21.468 67.5116 21.42 67.2609 21.42C66.8716 21.42 66.5222 21.5187 66.2129 21.716C65.9036 21.908 65.6609 22.1747 65.4849 22.516C65.3142 22.8573 65.2289 23.252 65.2289 23.7C65.2289 24.148 65.3169 24.5453 65.4929 24.892C65.6689 25.2387 65.9116 25.5107 66.2209 25.708C66.5356 25.9 66.8902 25.996 67.2849 25.996C67.5409 25.996 67.7836 25.9453 68.0129 25.844C68.2422 25.7373 68.4476 25.5933 68.6289 25.412C68.8156 25.2307 68.9622 25.0227 69.0689 24.788L69.6609 25.084C69.5222 25.3773 69.3302 25.6387 69.0849 25.868C68.8449 26.0973 68.5676 26.276 68.2529 26.404C67.9436 26.532 67.6209 26.596 67.2849 26.596ZM74.2985 26.5V20.9H74.9705V26.5H74.2985ZM70.4505 26.5V20.9H71.1305V26.5H70.4505ZM71.0505 23.924V23.308H74.4425V23.924H71.0505Z" fill="#67B464"/>
</g>
<defs>
<clipPath id="clip0_8693_538">
<rect width="80" height="35" fill="white"/>
</clipPath>
</defs>
</svg>
