<svg width="230" height="87" viewBox="0 0 230 87" fill="none" xmlns="http://www.w3.org/2000/svg">
<g clip-path="url(#clip0_2321_2)">
<path d="M104.2 21.3988H116C121.6 21.3988 125.1 22.5988 127.2 24.5988C128.9 26.2988 129.6 28.4988 129.6 30.8988C129.6 35.5988 127.1 39.6988 121.2 41.4988L125.4 51.5988H114.5L111.1 42.8988H108.6L106.3 51.5988H96.2L104.3 21.2988L104.2 21.3988ZM114.1 35.7988C117.5 35.7988 119.3 34.1988 119.3 32.2988C119.3 30.3988 119.1 31.0988 118.6 30.6988C118 30.0988 117 29.7988 115.6 29.7988H112L110.4 35.6988H114.1V35.7988Z" fill="white"/>
<path d="M126.8 45C126.8 43.8 127 42.5 127.4 41L130.9 28H140.7L137.5 39.8C137.3 40.4 137.2 41.1 137.2 41.6C137.2 42.8 137.8 43.7 139.3 43.7C140.8 43.7 142.3 42.4 143 39.9L146.2 28.1H153.1L146.8 51.7H139.9L140.7 48.8C139.1 50.7 136.6 52.3 133.6 52.3C129.3 52.3 126.8 49.5 126.8 45.1V45Z" fill="white"/>
<path d="M150.5 48.6996L149.7 51.6996H139.9L148.3 20.0996H158.1L155.3 30.4996C157 28.7996 159.5 27.4996 162.1 27.4996C166.3 27.4996 169.8 30.8996 169.8 36.6996C169.8 45.2996 164.3 52.1996 157.4 52.1996C150.5 52.1996 151.8 50.6996 150.5 48.5996V48.6996ZM160.1 38.8996C160.1 36.8996 158.8 35.4996 156.9 35.4996C154.2 35.4996 152.3 37.9996 152.3 40.7996C152.3 43.5996 153.6 44.1996 155.5 44.1996C158.2 44.1996 160.1 41.6996 160.1 38.8996Z" fill="white"/>
<path d="M172.8 28.0996H182.6L176.3 51.6996H166.5L172.8 28.0996ZM174.8 20.0996H185L183.3 26.3996H173.1L174.8 20.0996Z" fill="white"/>
<path d="M92.7 79.4L98.5 72.5C102 75.4 105.5 76.8 108.7 76.8C111.9 76.8 110.9 76.3 110.9 75.5C110.9 74.7 110.3 74.3 105.9 72.6C100.3 70.5 97.6 68.5 97.6 64.1C97.6 59.7 103 53.5 111.2 53.5C119.4 53.5 121.4 55.2 124.7 58L118.9 64.9C116.6 63 113.4 61.5 110.2 61.5C107 61.5 108 61.8 108 62.7C108 63.6 108.7 63.8 112.8 65.3C118 67.2 121.2 69.4 121.2 74C121.2 78.6 116.2 84.9 107.5 84.9C98.8 84.9 96.3 82.7 92.6 79.4H92.7Z" fill="white"/>
<path d="M121.8 78.2992C121.8 77.2992 122 76.1992 122.3 74.9992L124.1 68.1992H121.3L123.3 60.5992H126.1L127.7 54.6992H137.5L135.9 60.5992H147.3L139.3 68.1992H133.9L132.6 73.2992C132.4 74.0992 132.3 74.5992 132.3 75.0992C132.3 76.0992 132.9 76.5992 134.3 76.5992C135.7 76.5992 135.8 76.4992 137.2 76.0992L135.1 84.0992C133.4 84.4992 131.8 84.7992 130.1 84.7992C124.6 84.7992 121.9 82.6992 121.9 78.3992L121.8 78.2992Z" fill="white"/>
<path d="M140.4 77.5996C140.4 76.3996 140.6 74.9996 141 73.5996L144.5 60.5996H154.3L151.1 72.3996C150.9 72.9996 150.8 73.6996 150.8 74.1996C150.8 75.3996 151.4 76.2996 152.9 76.2996C154.4 76.2996 155.9 74.9996 156.6 72.4996L159.8 60.6996H169.6L163.3 84.2996H153.5L154.3 81.3996C152.7 83.2996 150.2 84.8996 147.2 84.8996C142.9 84.8996 140.4 82.0996 140.4 77.6996V77.5996Z" fill="white"/>
<path d="M166.1 75.5992C166.1 66.9992 171.6 60.0992 178.5 60.0992C185.4 60.0992 184.1 61.5992 185.4 63.6992L188.3 52.6992H198.1L189.7 84.2992H179.9L180.5 81.8992C178.8 83.5992 176.3 84.8992 173.7 84.8992C169.5 84.8992 166 81.4992 166 75.6992L166.1 75.5992ZM183.7 71.4992C183.7 69.4992 182.4 68.0992 180.5 68.0992C177.8 68.0992 175.9 70.6992 175.9 73.3992C175.9 76.0992 177.2 76.7992 179.1 76.7992C181.8 76.7992 183.7 74.1992 183.7 71.4992Z" fill="white"/>
<path d="M197 60.5992H206.8L200.5 84.1992H190.7L197 60.5992ZM199 52.6992H209.2L207.5 58.9992H197.3L199 52.6992Z" fill="white"/>
<path d="M203.9 73.8C203.9 66.6 209.8 60 218 60C226.2 60 229.8 64.8 229.8 71C229.8 77.2 223.9 84.8 215.7 84.8C207.5 84.8 203.9 80 203.9 73.8ZM220.6 71.5C220.6 69.5 219.4 68.1 217.4 68.1C215.4 68.1 213.1 70.6 213.1 73.4C213.1 76.2 214.4 76.8 216.3 76.8C218.2 76.8 220.6 74.3 220.6 71.5Z" fill="white"/>
<path d="M190.5 28.5H198.7C194.8 32.4 190.9 36.3 186.9 40.3C190.8 44.2 194.6 48 198.5 51.9H190.5C186.7 48.1 182.9 44.3 179 40.4V40C182.8 36.2 186.7 32.3 190.5 28.5Z" fill="white"/>
<path d="M194.5 28.5H202.7C198.8 32.4 194.9 36.3 190.9 40.3C194.8 44.2 198.6 48 202.5 51.9H194.5C190.7 48.1 186.9 44.3 183 40.4V40C186.8 36.2 190.7 32.3 194.5 28.5Z" fill="white"/>
<path d="M32.4 0H7.8C3.49218 0 0 3.49218 0 7.8V32.4C0 36.7078 3.49218 40.2 7.8 40.2H32.4C36.7078 40.2 40.2 36.7078 40.2 32.4V7.8C40.2 3.49218 36.7078 0 32.4 0Z" fill="white"/>
<path d="M78.0999 0H53.5C49.1921 0 45.7 3.49218 45.7 7.8V32.4C45.7 36.7078 49.1921 40.2 53.5 40.2H78.0999C82.4078 40.2 85.9 36.7078 85.9 32.4V7.8C85.9 3.49218 82.4078 0 78.0999 0Z" fill="white"/>
<path d="M78.0999 46H53.5C49.1921 46 45.7 49.4922 45.7 53.8V78.4C45.7 82.7078 49.1921 86.2 53.5 86.2H78.0999C82.4078 86.2 85.9 82.7078 85.9 78.4V53.8C85.9 49.4922 82.4078 46 78.0999 46Z" fill="white"/>
</g>
<defs>
<clipPath id="clip0_2321_2">
<rect width="229.9" height="86.2" fill="white"/>
</clipPath>
</defs>
</svg>
