<?xml version="1.0" encoding="UTF-8"?>
<svg id="Layer_2" xmlns="http://www.w3.org/2000/svg" version="1.1" viewBox="0 0 229.9 86.2">
  <!-- Generator: Adobe Illustrator 29.5.1, SVG Export Plug-In . SVG Version: 2.1.0 Build 141)  -->
  <defs>
    <style>
      .st0 {
        fill: #fff;
      }
    </style>
  </defs>
  <g id="Layer_1-2">
    <g>
      <g>
        <path class="st0" d="M104.2,21.4h11.8c5.6,0,9.1,1.2,11.2,3.2,1.7,1.7,2.4,3.9,2.4,6.3,0,4.7-2.5,8.8-8.4,10.6l4.2,10.1h-10.9l-3.4-8.7h-2.5l-2.3,8.7h-10.1l8.1-30.3h0ZM114.1,35.8c3.4,0,5.2-1.6,5.2-3.5s-.2-1.2-.7-1.6c-.6-.6-1.6-.9-3-.9h-3.6l-1.6,5.9h3.7,0Z"/>
        <path class="st0" d="M126.8,45c0-1.2.2-2.5.6-4l3.5-13h9.8l-3.2,11.8c-.2.6-.3,1.3-.3,1.8,0,1.2.6,2.1,2.1,2.1s3-1.3,3.7-3.8l3.2-11.8h6.9l-6.3,23.6h-6.9l.8-2.9c-1.6,1.9-4.1,3.5-7.1,3.5-4.3,0-6.8-2.8-6.8-7.2h0Z"/>
        <path class="st0" d="M150.5,48.7l-.8,3h-9.8l8.4-31.6h9.8l-2.8,10.4c1.7-1.7,4.2-3,6.8-3,4.2,0,7.7,3.4,7.7,9.2,0,8.6-5.5,15.5-12.4,15.5s-5.6-1.5-6.9-3.6h0ZM160.1,38.9c0-2-1.3-3.4-3.2-3.4-2.7,0-4.6,2.5-4.6,5.3s1.3,3.4,3.2,3.4c2.7,0,4.6-2.5,4.6-5.3Z"/>
        <path class="st0" d="M172.8,28.1h9.8l-6.3,23.6h-9.8l6.3-23.6h0ZM174.8,20.1h10.2l-1.7,6.3h-10.2l1.7-6.3Z"/>
        <path class="st0" d="M92.7,79.4l5.8-6.9c3.5,2.9,7,4.3,10.2,4.3s2.2-.5,2.2-1.3-.6-1.2-5-2.9c-5.6-2.1-8.3-4.1-8.3-8.5s5.4-10.6,13.6-10.6,10.2,1.7,13.5,4.5l-5.8,6.9c-2.3-1.9-5.5-3.4-8.7-3.4s-2.2.3-2.2,1.2.7,1.1,4.8,2.6c5.2,1.9,8.4,4.1,8.4,8.7s-5,10.9-13.7,10.9-11.2-2.2-14.9-5.5h0Z"/>
        <path class="st0" d="M121.8,78.3c0-1,.2-2.1.5-3.3l1.8-6.8h-2.8l2-7.6h2.8l1.6-5.9h9.8l-1.6,5.9h11.4l-8,7.6h-5.4l-1.3,5.1c-.2.8-.3,1.3-.3,1.8,0,1,.6,1.5,2,1.5s1.5-.1,2.9-.5l-2.1,8c-1.7.4-3.3.7-5,.7-5.5,0-8.2-2.1-8.2-6.4Z"/>
        <path class="st0" d="M140.4,77.6c0-1.2.2-2.6.6-4l3.5-13h9.8l-3.2,11.8c-.2.6-.3,1.3-.3,1.8,0,1.2.6,2.1,2.1,2.1s3-1.3,3.7-3.8l3.2-11.8h9.8l-6.3,23.6h-9.8l.8-2.9c-1.6,1.9-4.1,3.5-7.1,3.5-4.3,0-6.8-2.8-6.8-7.2h0Z"/>
        <path class="st0" d="M166.1,75.6c0-8.6,5.5-15.5,12.4-15.5s5.6,1.5,6.9,3.6l2.9-11h9.8l-8.4,31.6h-9.8l.6-2.4c-1.7,1.7-4.2,3-6.8,3-4.2,0-7.7-3.4-7.7-9.2h0ZM183.7,71.5c0-2-1.3-3.4-3.2-3.4-2.7,0-4.6,2.6-4.6,5.3s1.3,3.4,3.2,3.4c2.7,0,4.6-2.6,4.6-5.3Z"/>
        <path class="st0" d="M197,60.6h9.8l-6.3,23.6h-9.8l6.3-23.6h0ZM199,52.7h10.2l-1.7,6.3h-10.2l1.7-6.3Z"/>
        <path class="st0" d="M203.9,73.8c0-7.2,5.9-13.8,14.1-13.8s11.8,4.8,11.8,11-5.9,13.8-14.1,13.8-11.8-4.8-11.8-11h0ZM220.6,71.5c0-2-1.2-3.4-3.2-3.4s-4.3,2.5-4.3,5.3,1.3,3.4,3.2,3.4,4.3-2.5,4.3-5.3Z"/>
        <path class="st0" d="M190.5,28.5h8.2c-3.9,3.9-7.8,7.8-11.8,11.8,3.9,3.9,7.7,7.7,11.6,11.6h-8c-3.8-3.8-7.6-7.6-11.5-11.5v-.4c3.8-3.8,7.7-7.7,11.5-11.5h0Z"/>
        <path class="st0" d="M194.5,28.5h8.2c-3.9,3.9-7.8,7.8-11.8,11.8,3.9,3.9,7.7,7.7,11.6,11.6h-8c-3.8-3.8-7.6-7.6-11.5-11.5v-.4c3.8-3.8,7.7-7.7,11.5-11.5h0Z"/>
      </g>
      <rect class="st0" width="40.2" height="40.2" rx="7.8" ry="7.8"/>
      <rect class="st0" x="45.7" width="40.2" height="40.2" rx="7.8" ry="7.8"/>
      <rect class="st0" x="45.7" y="46" width="40.2" height="40.2" rx="7.8" ry="7.8"/>
    </g>
  </g>
</svg>